<?xml version="1.0" encoding="UTF-8" standalone="no"?>
<svg
   width="24"
   height="24"
   viewBox="0 0 24 24"
   fill="none"
   version="1.1"
   id="svg65"
   sodipodi:docname="jira.svg"
   inkscape:version="1.1.2 (b8e25be8, 2022-02-05)"
   xmlns:inkscape="http://www.inkscape.org/namespaces/inkscape"
   xmlns:sodipodi="http://sodipodi.sourceforge.net/DTD/sodipodi-0.dtd"
   xmlns="http://www.w3.org/2000/svg"
   xmlns:svg="http://www.w3.org/2000/svg">
  <sodipodi:namedview
     id="namedview67"
     pagecolor="#ffffff"
     bordercolor="#666666"
     borderopacity="1.0"
     inkscape:pageshadow="2"
     inkscape:pageopacity="0.0"
     inkscape:pagecheckerboard="0"
     showgrid="false"
     inkscape:zoom="23.21875"
     inkscape:cx="-1.076716"
     inkscape:cy="12.51144"
     inkscape:window-width="2560"
     inkscape:window-height="1387"
     inkscape:window-x="0"
     inkscape:window-y="25"
     inkscape:window-maximized="1"
     inkscape:current-layer="svg65"
     width="24px" />
  <path
     d="M 23.320388,11.337 12.977888,0.99448 11.983388,0 4.2265275,7.7569 l -3.54696,3.547 c -0.36464,0.3646 -0.36464,0.9613 0,1.3591 l 7.09392,7.0939 4.2099005,4.2431 7.756899,-7.7569 0.1326,-0.1326 3.4475,-3.4475 c 0.3647,-0.3647 0.3647,-0.9613 1e-6,-1.326 z m -11.337,4.21 L 8.4364875,12 11.983388,8.453 15.530388,12 Z"
     fill="#2684ff"
     id="path47" />
  <path
     d="M 11.5774,8.4531 C 9.257,6.1327 9.257,2.35365 11.5443,0.0332 l -7.75695,7.7569 4.20995,4.21 z"
     fill="url(#paint0_linear)"
     id="path49"
     style="fill:url(#paint0_linear)" />
  <path
     d="m 15.1244,12 -3.547,3.547 c 2.3204,2.3204 2.3204,6.0994 0,8.453 l 7.79,-7.7901 z"
     fill="url(#paint1_linear)"
     id="path51"
     style="fill:url(#paint1_linear)" />
  <defs
     id="defs63">
    <linearGradient
       id="paint0_linear"
       x1="14.9447"
       y1="8.85952"
       x2="9.9911098"
       y2="13.8131"
       gradientUnits="userSpaceOnUse"
       gradientTransform="translate(-4,-4)">
      <stop
         offset="0.176"
         stop-color="#0052CC"
         id="stop53" />
      <stop
         offset="1"
         stop-color="#2684FF"
         id="stop55" />
    </linearGradient>
    <linearGradient
       id="paint1_linear"
       x1="16.2558"
       y1="23.089199"
       x2="21.199499"
       y2="18.145599"
       gradientUnits="userSpaceOnUse"
       gradientTransform="translate(-4,-4)">
      <stop
         offset="0.176"
         stop-color="#0052CC"
         id="stop58" />
      <stop
         offset="1"
         stop-color="#2684FF"
         id="stop60" />
    </linearGradient>
  </defs>
</svg>
